#!OML:ASF H:\ManfredETheater\Project 1\Capture day 1\Session 1\subject.ASF
:FULLY-SPECIFIED
:DEGREES
203
root -7.45672 14.871 13.6841 -160.217 13.2071 165.062
lowerback 44.2161 -3.88338 0.902797
upperback 10.4201 -0.830008 -1.86469
thorax -9.04328 1.12233 -2.34075
lowerneck -8.22418 -5.88383 -4.25719
upperneck -13.6656 -6.63757 -3.90927
head -2.99467 -2.25773 -0.582337
rclavicle 4.6118e-014 5.32743e-014
rhumerus 13.0955 5.40357 -50.342
rradius 60.2389
rwrist 0.695801
rhand -35.4291 -2.35022
rfingers 7.12502
rthumb -8.55891 -32.1568
lclavicle 4.6118e-014 5.32743e-014
lhumerus -10.2794 8.28676 79.4067
lradius 92.4011
lwrist -0.364892
lhand -28.0785 -10.756
lfingers 7.12502
lthumb -1.46171 19.2187
rfemur -56.9947 -4.35133 34.3617
rtibia 79.025
rfoot -26.6089 -18.5891
rtoes -26.3869
lfemur -74.8946 3.39145 -18.0066
ltibia 96.3922
lfoot -11.5943 9.70293
ltoes -1.10169
204
root -7.42288 14.8229 13.3466 -159.797 13.4899 164.901
lowerback 45.6254 -4.32752 0.946923
upperback 10.8363 -1.06365 -2.03667
thorax -8.96186 1.12476 -2.45563
lowerneck -7.18682 -6.48573 -3.97954
upperneck -14.7139 -7.55241 -3.15432
head -3.52383 -2.69219 -0.34655
rclavicle 6.99722e-014 1.59028e-014
rhumerus 17.708 4.04126 -48.1255
rradius 59.178
rwrist 0.607447
rhand -35.1555 -2.97451
rfingers 7.12502
rthumb -8.29482 -32.7917
lclavicle 6.99722e-014 1.59028e-014
lhumerus -9.46242 9.50648 78.6883
lradius 93.2302
lwrist 0.238134
lhand -28.1933 -10.851
lfingers 7.12502
lthumb -1.57256 19.123
rfemur -56.7679 -3.88821 33.6279
rtibia 80.4719
rfoot -26.841 -18.5408
rtoes -28.418
lfemur -78.5562 3.87422 -18.6365
ltibia 93.9071
lfoot -11.8948 8.10763
ltoes -5.19811
205
root -7.38636 14.7796 13.0026 -159.152 13.7224 164.642
lowerback 46.8208 -4.81812 1.04099
upperback 11.2048 -1.36486 -2.22371
thorax -8.8659 1.0838 -2.5783
lowerneck -6.19788 -7.06081 -3.71006
upperneck -15.6889 -8.4125 -2.39877
head -4.027 -3.1116 -0.0940912
rclavicle -1.90833e-014 -1.59028e-014
rhumerus 22.2146 2.35922 -46.0928
rradius 57.9729
rwrist 0.707429
rhand -34.7675 -3.54632
rfingers 7.12502
rthumb -7.92042 -33.3779
lclavicle -1.90833e-014 -1.59028e-014
lhumerus -8.59712 10.5327 77.9595
lradius 94.0051
lwrist 0.952921
lhand -28.3241 -10.9626
lfingers 7.12502
lthumb -1.69892 19.0104
rfemur -56.7321 -3.54635 32.8741
rtibia 81.7261
rfoot -27.0286 -18.4885
rtoes -30.1866
lfemur -82.1095 4.24673 -19.6905
ltibia 90.8554
lfoot -11.8167 6.09827
ltoes -9.03259
206
root -7.34886 14.7352 12.6505 -158.237 13.8829 164.307
lowerback 48.6471 -5.3623 1.21545
upperback 10.5639 -1.73991 -2.40453
thorax -8.67684 1.01044 -2.69028
lowerneck -5.26326 -7.61207 -3.45502
upperneck -16.603 -9.22303 -1.66061
head -4.5063 -3.5141 0.168485
rclavicle 7.15625e-014 -7.95139e-016
rhumerus 26.5466 0.357789 -44.3139
rradius 56.6612
rwrist 0.969541
rhand -34.317 -4.04863
rfingers 7.12502
rthumb -7.48552 -33.8962
lclavicle 7.15625e-014 -7.95139e-016
lhumerus -7.64736 11.3158 77.2089
lradius 94.6907
lwrist 1.74775
lhand -28.5051 -11.0941
lfingers 7.12502
lthumb -1.87379 18.8774
rfemur -56.9164 -3.31636 32.1172
rtibia 82.8143
rfoot -27.2749 -18.44
rtoes -31.6929
lfemur -85.6056 4.46814 -21.1437
ltibia 87.3524
lfoot -11.2256 3.62237
ltoes -12.6836
207
root -7.30948 14.6863 12.2889 -157.046 13.9775 163.924
lowerback 49.2359 -5.95446 1.55329
upperback 10.8475 -2.13482 -2.58674
thorax -8.48287 0.895568 -2.87712
lowerneck -4.39312 -8.13196 -3.20859
upperneck -17.4376 -9.97923 -0.975903
head -4.95367 -3.89531 0.42537
rclavicle -1.90833e-014 -5.64548e-014
rhumerus 30.6888 -1.91093 -42.7907
rradius 55.2335
rwrist 1.31498
rhand -33.8685 -4.45301
rfingers 7.12502
rthumb -7.05262 -34.3155
lclavicle -1.90833e-014 -5.64548e-014
lhumerus -6.58892 11.8211 76.4079
lradius 95.2444
lwrist 2.59112
lhand -28.7618 -11.299
lfingers 7.12502
lthumb -2.12167 18.6702
rfemur -57.2778 -3.1715 31.3804
rtibia 83.727
rfoot -27.6552 -18.4259
rtoes -32.9722
lfemur -89.0367 4.53003 -22.9701
ltibia 83.5113
lfoot -9.99419 0.690911
ltoes -15.9442
208
root -7.2668 14.6306 11.9166 -155.587 14.0304 163.519
lowerback 49.442 -6.56136 2.02298
upperback 11.146 -2.53367 -2.75743
thorax -8.22136 0.760906 -3.10737
lowerneck -3.39098 -8.61203 -2.94244
upperneck -18.7917 -10.6967 -0.315089
head -4.98111 -4.25112 0.647541
rclavicle -2.38542e-014 -2.22639e-014
rhumerus 34.6399 -4.40483 -41.5131
rradius 53.6882
rwrist 1.63192
rhand -33.4696 -4.76351
rfingers 7.12502
rthumb -6.66757 -34.6385
lclavicle -2.38542e-014 -2.22639e-014
lhumerus -5.39914 12.0275 75.5337
lradius 95.6479
lwrist 3.43446
lhand -29.0966 -11.5984
lfingers 7.12502
lthumb -2.44496 18.3673
rfemur -57.7614 -3.07249 30.687
rtibia 84.4385
rfoot -28.1896 -18.5088
rtoes -34.1485
lfemur -92.3836 4.4308 -25.1483
ltibia 79.4507
lfoot -7.97494 -2.54205
ltoes -18.5612
209
root -7.2184 14.5676 11.5331 -153.903 14.0949 163.133
lowerback 49.3166 -7.12608 2.57704
upperback 11.4552 -2.89325 -2.90742
thorax -7.9043 0.626422 -3.3696
lowerneck -2.62921 -9.05502 -2.74739
upperneck -19.5303 -11.328 0.305912
head -5.3031 -4.58142 0.876251
rclavicle -3.97569e-014 -5.18828e-014
rhumerus 38.3992 -7.06336 -40.5113
rradius 52.0139
rwrist 1.88468
rhand -33.1486 -4.98296
rfingers 7.12502
rthumb -6.35769 -34.8675
lclavicle -3.97569e-014 -5.18828e-014
lhumerus -4.06987 11.9382 74.5428
lradius 95.8971
lwrist 4.24142
lhand -29.4125 -11.9185
lfingers 7.12502
lthumb -2.75005 18.0435
rfemur -58.2677 -2.95738 30.0603
rtibia 84.9116
rfoot -28.9034 -18.7079
rtoes -35.2084
lfemur -95.585 4.19487 -27.6338
ltibia 75.3038
lfoot -5.1017 -5.82942
ltoes -20.351
210
root -7.16255 14.4984 11.1376 -152.069 14.2013 162.793
lowerback 48.9558 -7.62433 3.17615
upperback 11.7708 -3.19689 -3.04362
thorax -7.54774 0.504534 -3.66246
lowerneck -1.94002 -9.4459 -2.58747
upperneck -20.1582 -11.883 0.887567
head -5.57902 -4.87883 1.09659
rclavicle 4.77083e-014 -7.95139e-015
rhumerus 41.9997 -9.82343 -39.8257
rradius 50.1899
rwrist 2.08739
rhand -32.9165 -5.1274
rfingers 7.12502
rthumb -6.13364 -35.0186
lclavicle 4.77083e-014 -7.95139e-015
lhumerus -2.59643 11.5848 73.3875
lradius 96.0093
lwrist 4.95642
lhand -29.666 -12.213
lfingers 7.12502
lthumb -2.99489 17.7457
rfemur -58.6759 -2.79957 29.5166
rtibia 85.1104
rfoot -29.8006 -19.0632
rtoes -36.1788
lfemur -98.5579 3.81828 -30.3574
ltibia 71.2248
lfoot -1.4868 -8.85764
ltoes -21.39
211
root -7.09812 14.4239 10.7309 -150.125 14.3882 162.534
lowerback 48.4203 -8.01189 3.76199
upperback 12.0901 -3.41542 -3.16277
thorax -7.15671 0.410549 -3.96913
lowerneck -1.34145 -9.77787 -2.47046
upperneck -20.6532 -12.3515 1.44406
head -5.79729 -5.14014 1.3099
rclavicle -1.04958e-013 -5.93372e-014
rhumerus 45.4786 -12.6244 -39.5215
rradius 48.2071
rwrist 2.29505
rhand -32.7149 -5.24552
rfingers 7.12502
rthumb -5.93892 -35.1423
lclavicle -1.04958e-013 -5.93372e-014
lhumerus -0.970501 11.0095 72.0351
lradius 95.999
lwrist 5.51807
lhand -29.8112 -12.4319
lfingers 7.12502
lthumb -3.13513 17.5248
rfemur -58.9343 -2.55439 29.0751
rtibia 85.0156
rfoot -30.8268 -19.5806
rtoes -37.062
lfemur -101.284 3.31723 -33.1954
ltibia 67.3795
lfoot 2.61894 -11.3666
ltoes -21.8217
212
root -7.02453 14.3462 10.3137 -148.129 14.6645 162.383
lowerback 46.8419 -8.25994 4.32332
upperback 13.3697 -3.54691 -3.26241
thorax -6.75636 0.332933 -4.36027
lowerneck -0.848498 -10.0358 -2.38033
upperneck -21.013 -12.7133 1.96457
head -5.95645 -5.35548 1.50644
rclavicle 4.77083e-014 -2.26615e-014
rhumerus 48.9446 -15.3977 -39.5605
rradius 46.0125
rwrist 2.45859
rhand -32.4709 -5.42927
rfingers 7.12502
rthumb -5.70335 -35.3325
lclavicle 4.77083e-014 -2.26615e-014
lhumerus 0.820927 10.2897 70.4324
lradius 95.8717
lwrist 5.88511
lhand -29.8403 -12.5475
lfingers 7.12502
lthumb -3.16323 17.4088
rfemur -58.9885 -2.21214 28.7443
rtibia 84.6186
rfoot -31.9207 -20.2339
rtoes -37.8452
lfemur -103.739 2.70557 -35.9565
ltibia 63.9405
lfoot 6.91349 -13.2187
ltoes -21.5161
213
root -6.94163 14.2681 9.88709 -146.143 15.0118 162.348
lowerback 46.2201 -8.43401 4.82019
upperback 13.6479 -3.60611 -3.36677
thorax -6.33424 0.303871 -4.69806
lowerneck -0.390183 -10.2453 -2.32283
upperneck -21.2948 -13.01 2.44218
head -6.08602 -5.53972 1.69032
rclavicle -2.54444e-014 2.82274e-014
rhumerus 52.3687 -18.0757 -39.9856
rradius 43.6411
rwrist 2.67962
rhand -32.1362 -5.72781
rfingers 7.12502
rthumb -5.38026 -35.6395
lclavicle -2.54444e-014 2.82274e-014
lhumerus 2.76564 9.44052 68.5942
lradius 95.64
lwrist 6.03277
lhand -29.7992 -12.5695
lfingers 7.12502
lthumb -3.1235 17.3874
rfemur -58.7922 -1.80075 28.5303
rtibia 83.9265
rfoot -32.9944 -20.9881
rtoes -38.57
lfemur -105.899 2.00882 -38.3838
ltibia 61.0747
lfoot 11.0439 -14.3762
ltoes -20.562
